<svg width="300" height="300" viewBox="0 0 300 300" fill="none" xmlns="http://www.w3.org/2000/svg">
<rect width="300" height="300" fill="white"/>
<path d="M235.285 38.8367L261.054 64.6056L178.09 147.57C174.966 150.694 169.901 150.694 166.776 147.57L152.321 133.114C149.197 129.99 149.197 124.925 152.321 121.801L235.285 38.8367Z" stroke="#CCCCCC" stroke-width="10"/>
<path d="M243.817 30.3049C249.675 24.447 259.172 24.447 265.03 30.3049L269.586 34.8606C275.444 40.7185 275.444 50.216 269.586 56.0738L261.746 63.914L235.977 38.1451L243.817 30.3049Z" stroke="#CCCCCC" stroke-width="10"/>
<path d="M169.134 151.629L140.233 159.658L148.262 130.757L169.134 151.629Z" stroke="#CCCCCC" stroke-width="10"/>
<path d="M210 40H56H55C46.7157 40 40 46.7157 40 55V55V244.482C40 246.15 40.2689 247.807 40.7963 249.389V249.389C42.198 253.594 45.331 256.999 49.4052 258.745L50.2062 259.088C52.3794 260.02 54.7192 260.5 57.0835 260.5H242.728C245.214 260.5 247.672 259.972 249.94 258.952L250.461 258.717C254.331 256.976 257.362 253.784 258.9 249.828V249.828C259.627 247.959 260 245.971 260 243.965V90.5" stroke="#CCCCCC" stroke-width="10" stroke-linecap="round"/>
</svg>
