<svg width="300" height="300" viewBox="0 0 300 300" fill="none" xmlns="http://www.w3.org/2000/svg">
<rect width="300" height="300" fill="white"/>
<path d="M110 208V255C110 266.046 101.046 275 90 275H51C39.9543 275 31 266.046 31 255V138.069C31 132.857 33.0349 127.85 36.6712 124.116L50.5 109.915L137.864 33.4907C145.39 26.9073 156.622 26.8934 164.164 33.4583L250.861 108.924C251.619 109.584 252.327 110.3 252.977 111.066L264.247 124.341C267.315 127.956 269 132.543 269 137.285V255C269 266.046 260.046 275 249 275H210C198.954 275 190 266.046 190 255V208" stroke="#CCCCCC" stroke-width="10" stroke-linecap="round"/>
<path d="M110 206V206C120.721 164.715 179.405 164.683 190 206V206" stroke="#CCCCCC" stroke-width="10" stroke-linecap="round"/>
</svg>
